# Alias Wavefront OBJ File Exported from SketchUp
# with OBJexporter (c) 2013 TIG
# Units = meters

mtllib camera_mount.mtl

g camera_mount-COM-camera_mount-572-Default_Material
usemtl Default_Material
v 0.02 0 -0.0105
v 0 0 0
v 0 0 -0.0105
v 0.02 0 0
v 0.02 0.023 0
v 0.02 0.023 -0.0105
v 0.003 0.01025 -0.0105
v 0 0.023 -0.0105
v 0.003 0.01275 -0.0105
v 0.017 0.01275 -0.0105
v 0.017 0.01025 -0.0105
v 0 0.023 0
v 0.017 0.01025 0
v 0.017 0.01275 0
v 0.003 0.01275 0
v 0.003 0.01025 0
vt -0.787401574803 0.413385826772
vt 0 0
vt 0 0.413385826772
vt -0.787401574803 0
vt 0.413385826772 0
vt 0 0.905511811024
vt 0.413385826772 0.905511811024
vt -0.11811023622 0.403543307087
vt -0.11811023622 0.501968503937
vt -0.669291338583 0.501968503937
vt -0.669291338583 0.403543307087
vt -0.787401574803 0.905511811024
vt 0.787401574803 0
vt 0.787401574803 0.413385826772
vt 0.669291338583 0.403543307087
vt 0.787401574803 0.905511811024
vt 0.669291338583 0.501968503937
vt 0.11811023622 0.501968503937
vt 0.11811023622 0.403543307087
vt -0.413385826772 0.905511811024
vt -0.413385826772 0
vt 0.669291338583 0
vt 0.11811023622 0.413385826772
vt 0.11811023622 0
vt 0.669291338583 0.413385826772
vt -0.413385826772 0.501968503937
vt 0 0.403543307087
vt 0 0.501968503937
vt -0.413385826772 0.403543307087
vt -0.669291338583 0.413385826772
vt -0.11811023622 0
vt -0.11811023622 0.413385826772
vt -0.669291338583 0
vt 0.413385826772 0.403543307087
vt 0.413385826772 0.501968503937
vn 0 -1 0
vn 1 0 0
vn 0 0 -1
vn 0 1 0
vn 0 0 1
vn -1 0 0
f 1/1/1 2/2/1 3/3/1
f 2/2/1 1/1/1 4/4/1
f 1/5/2 5/6/2 4/2/2
f 5/6/2 1/5/2 6/7/2
f 3/2/3 7/8/3 1/4/3
f 7/8/3 3/2/3 8/6/3
f 7/8/3 8/6/3 9/9/3
f 9/9/3 8/6/3 10/10/3
f 1/4/3 11/11/3 6/12/3
f 11/11/3 1/4/3 7/8/3
f 6/12/3 11/11/3 10/10/3
f 6/12/3 10/10/3 8/6/3
f 5/13/4 8/3/4 12/2/4
f 8/3/4 5/13/4 6/14/4
f 4/13/5 13/15/5 2/2/5
f 13/15/5 4/13/5 5/16/5
f 13/15/5 5/16/5 14/17/5
f 14/17/5 5/16/5 15/18/5
f 2/2/5 16/19/5 12/6/5
f 16/19/5 2/2/5 13/15/5
f 12/6/5 16/19/5 15/18/5
f 12/6/5 15/18/5 5/16/5
f 8/20/6 2/2/6 12/6/6
f 2/2/6 8/20/6 3/21/6
f 13/22/4 7/23/4 16/24/4
f 7/23/4 13/22/4 11/25/4
f 10/26/6 13/27/6 14/28/6
f 13/27/6 10/26/6 11/29/6
f 10/30/1 15/31/1 9/32/1
f 15/31/1 10/30/1 14/33/1
f 7/34/2 15/28/2 16/27/2
f 15/28/2 7/34/2 9/35/2

#EOF
