<?xml version="1.0" encoding="UTF-8" standalone="no"?>
<!DOCTYPE svg PUBLIC "-//W3C//DTD SVG 1.1//EN"
 "http://www.w3.org/Graphics/SVG/1.1/DTD/svg11.dtd">
<!-- Generated by graphviz version 2.40.1 (20161225.0304)
 -->
<!-- Title: G Pages: 1 -->
<svg width="800pt" height="2089pt"
 viewBox="0.00 0.00 799.51 2089.00" xmlns="http://www.w3.org/2000/svg" xmlns:xlink="http://www.w3.org/1999/xlink">
<g id="graph0" class="graph" transform="scale(1 1) rotate(0) translate(4 2085)">
<title>G</title>
<polygon fill="#ffffff" stroke="transparent" points="-4,4 -4,-2085 795.5127,-2085 795.5127,4 -4,4"/>
<!-- 140696036883928 -->
<g id="node1" class="node">
<title>140696036883928</title>
<polygon fill="none" stroke="#000000" points="150.0947,-2044.5 150.0947,-2080.5 278.4601,-2080.5 278.4601,-2044.5 150.0947,-2044.5"/>
<text text-anchor="middle" x="214.2774" y="-2058.3" font-family="Times,serif" font-size="14.00" fill="#000000">input_1: InputLayer</text>
</g>
<!-- 140696036921472 -->
<g id="node2" class="node">
<title>140696036921472</title>
<polygon fill="none" stroke="#000000" points="42.7791,-1971.5 42.7791,-2007.5 385.7757,-2007.5 385.7757,-1971.5 42.7791,-1971.5"/>
<text text-anchor="middle" x="214.2774" y="-1985.3" font-family="Times,serif" font-size="14.00" fill="#000000">time_distributed_1(conv2d_1): TimeDistributed(Conv2D)</text>
</g>
<!-- 140696036883928&#45;&gt;140696036921472 -->
<g id="edge1" class="edge">
<title>140696036883928&#45;&gt;140696036921472</title>
<path fill="none" stroke="#000000" d="M214.2774,-2044.4551C214.2774,-2036.3828 214.2774,-2026.6764 214.2774,-2017.6817"/>
<polygon fill="#000000" stroke="#000000" points="217.7775,-2017.5903 214.2774,-2007.5904 210.7775,-2017.5904 217.7775,-2017.5903"/>
</g>
<!-- 140696036921416 -->
<g id="node3" class="node">
<title>140696036921416</title>
<polygon fill="none" stroke="#000000" points="42.7791,-1898.5 42.7791,-1934.5 385.7757,-1934.5 385.7757,-1898.5 42.7791,-1898.5"/>
<text text-anchor="middle" x="214.2774" y="-1912.3" font-family="Times,serif" font-size="14.00" fill="#000000">time_distributed_2(conv2d_2): TimeDistributed(Conv2D)</text>
</g>
<!-- 140696036921472&#45;&gt;140696036921416 -->
<g id="edge2" class="edge">
<title>140696036921472&#45;&gt;140696036921416</title>
<path fill="none" stroke="#000000" d="M214.2774,-1971.4551C214.2774,-1963.3828 214.2774,-1953.6764 214.2774,-1944.6817"/>
<polygon fill="#000000" stroke="#000000" points="217.7775,-1944.5903 214.2774,-1934.5904 210.7775,-1944.5904 217.7775,-1944.5903"/>
</g>
<!-- 140696036922480 -->
<g id="node4" class="node">
<title>140696036922480</title>
<polygon fill="none" stroke="#000000" points="0,-1825.5 0,-1861.5 428.5548,-1861.5 428.5548,-1825.5 0,-1825.5"/>
<text text-anchor="middle" x="214.2774" y="-1839.3" font-family="Times,serif" font-size="14.00" fill="#000000">time_distributed_3(max_pooling2d_1): TimeDistributed(MaxPooling2D)</text>
</g>
<!-- 140696036921416&#45;&gt;140696036922480 -->
<g id="edge3" class="edge">
<title>140696036921416&#45;&gt;140696036922480</title>
<path fill="none" stroke="#000000" d="M214.2774,-1898.4551C214.2774,-1890.3828 214.2774,-1880.6764 214.2774,-1871.6817"/>
<polygon fill="#000000" stroke="#000000" points="217.7775,-1871.5903 214.2774,-1861.5904 210.7775,-1871.5904 217.7775,-1871.5903"/>
</g>
<!-- 140696035866048 -->
<g id="node5" class="node">
<title>140696035866048</title>
<polygon fill="none" stroke="#000000" points="42.7791,-1752.5 42.7791,-1788.5 385.7757,-1788.5 385.7757,-1752.5 42.7791,-1752.5"/>
<text text-anchor="middle" x="214.2774" y="-1766.3" font-family="Times,serif" font-size="14.00" fill="#000000">time_distributed_4(conv2d_3): TimeDistributed(Conv2D)</text>
</g>
<!-- 140696036922480&#45;&gt;140696035866048 -->
<g id="edge4" class="edge">
<title>140696036922480&#45;&gt;140696035866048</title>
<path fill="none" stroke="#000000" d="M214.2774,-1825.4551C214.2774,-1817.3828 214.2774,-1807.6764 214.2774,-1798.6817"/>
<polygon fill="#000000" stroke="#000000" points="217.7775,-1798.5903 214.2774,-1788.5904 210.7775,-1798.5904 217.7775,-1798.5903"/>
</g>
<!-- 140696035868288 -->
<g id="node6" class="node">
<title>140696035868288</title>
<polygon fill="none" stroke="#000000" points="0,-1679.5 0,-1715.5 428.5548,-1715.5 428.5548,-1679.5 0,-1679.5"/>
<text text-anchor="middle" x="214.2774" y="-1693.3" font-family="Times,serif" font-size="14.00" fill="#000000">time_distributed_5(max_pooling2d_2): TimeDistributed(MaxPooling2D)</text>
</g>
<!-- 140696035866048&#45;&gt;140696035868288 -->
<g id="edge5" class="edge">
<title>140696035866048&#45;&gt;140696035868288</title>
<path fill="none" stroke="#000000" d="M214.2774,-1752.4551C214.2774,-1744.3828 214.2774,-1734.6764 214.2774,-1725.6817"/>
<polygon fill="#000000" stroke="#000000" points="217.7775,-1725.5903 214.2774,-1715.5904 210.7775,-1725.5904 217.7775,-1725.5903"/>
</g>
<!-- 140696035002072 -->
<g id="node7" class="node">
<title>140696035002072</title>
<polygon fill="none" stroke="#000000" points="42.7791,-1606.5 42.7791,-1642.5 385.7757,-1642.5 385.7757,-1606.5 42.7791,-1606.5"/>
<text text-anchor="middle" x="214.2774" y="-1620.3" font-family="Times,serif" font-size="14.00" fill="#000000">time_distributed_6(conv2d_4): TimeDistributed(Conv2D)</text>
</g>
<!-- 140696035868288&#45;&gt;140696035002072 -->
<g id="edge6" class="edge">
<title>140696035868288&#45;&gt;140696035002072</title>
<path fill="none" stroke="#000000" d="M214.2774,-1679.4551C214.2774,-1671.3828 214.2774,-1661.6764 214.2774,-1652.6817"/>
<polygon fill="#000000" stroke="#000000" points="217.7775,-1652.5903 214.2774,-1642.5904 210.7775,-1652.5904 217.7775,-1652.5903"/>
</g>
<!-- 140696035003808 -->
<g id="node8" class="node">
<title>140696035003808</title>
<polygon fill="none" stroke="#000000" points="0,-1533.5 0,-1569.5 428.5548,-1569.5 428.5548,-1533.5 0,-1533.5"/>
<text text-anchor="middle" x="214.2774" y="-1547.3" font-family="Times,serif" font-size="14.00" fill="#000000">time_distributed_7(max_pooling2d_3): TimeDistributed(MaxPooling2D)</text>
</g>
<!-- 140696035002072&#45;&gt;140696035003808 -->
<g id="edge7" class="edge">
<title>140696035002072&#45;&gt;140696035003808</title>
<path fill="none" stroke="#000000" d="M214.2774,-1606.4551C214.2774,-1598.3828 214.2774,-1588.6764 214.2774,-1579.6817"/>
<polygon fill="#000000" stroke="#000000" points="217.7775,-1579.5903 214.2774,-1569.5904 210.7775,-1579.5904 217.7775,-1579.5903"/>
</g>
<!-- 140696034155208 -->
<g id="node10" class="node">
<title>140696034155208</title>
<polygon fill="none" stroke="#000000" points="49.7854,-1460.5 49.7854,-1496.5 378.7694,-1496.5 378.7694,-1460.5 49.7854,-1460.5"/>
<text text-anchor="middle" x="214.2774" y="-1474.3" font-family="Times,serif" font-size="14.00" fill="#000000">time_distributed_8(flatten_1): TimeDistributed(Flatten)</text>
</g>
<!-- 140696035003808&#45;&gt;140696034155208 -->
<g id="edge8" class="edge">
<title>140696035003808&#45;&gt;140696034155208</title>
<path fill="none" stroke="#000000" d="M214.2774,-1533.4551C214.2774,-1525.3828 214.2774,-1515.6764 214.2774,-1506.6817"/>
<polygon fill="#000000" stroke="#000000" points="217.7775,-1506.5903 214.2774,-1496.5904 210.7775,-1506.5904 217.7775,-1506.5903"/>
</g>
<!-- 140696037575592 -->
<g id="node9" class="node">
<title>140696037575592</title>
<polygon fill="none" stroke="#000000" points="396.5947,-1460.5 396.5947,-1496.5 503.9601,-1496.5 503.9601,-1460.5 396.5947,-1460.5"/>
<text text-anchor="middle" x="450.2774" y="-1474.3" font-family="Times,serif" font-size="14.00" fill="#000000">imu: InputLayer</text>
</g>
<!-- 140696034155880 -->
<g id="node13" class="node">
<title>140696034155880</title>
<polygon fill="none" stroke="#000000" points="434.9523,-1387.5 434.9523,-1423.5 607.6025,-1423.5 607.6025,-1387.5 434.9523,-1387.5"/>
<text text-anchor="middle" x="521.2774" y="-1401.3" font-family="Times,serif" font-size="14.00" fill="#000000">concatenate_1: Concatenate</text>
</g>
<!-- 140696037575592&#45;&gt;140696034155880 -->
<g id="edge9" class="edge">
<title>140696037575592&#45;&gt;140696034155880</title>
<path fill="none" stroke="#000000" d="M467.828,-1460.4551C476.5324,-1451.5054 487.1906,-1440.547 496.693,-1430.7769"/>
<polygon fill="#000000" stroke="#000000" points="499.2195,-1433.1992 503.6827,-1423.5904 494.2014,-1428.3187 499.2195,-1433.1992"/>
</g>
<!-- 140696034155208&#45;&gt;140696034155880 -->
<g id="edge10" class="edge">
<title>140696034155208&#45;&gt;140696034155880</title>
<path fill="none" stroke="#000000" d="M290.1651,-1460.4551C334.2504,-1449.9722 389.9264,-1436.7333 435.5849,-1425.8764"/>
<polygon fill="#000000" stroke="#000000" points="436.5461,-1429.2455 445.4652,-1423.527 434.9267,-1422.4354 436.5461,-1429.2455"/>
</g>
<!-- 140696036883872 -->
<g id="node11" class="node">
<title>140696036883872</title>
<polygon fill="none" stroke="#000000" points="521.4951,-1460.5 521.4951,-1496.5 663.0597,-1496.5 663.0597,-1460.5 521.4951,-1460.5"/>
<text text-anchor="middle" x="592.2774" y="-1474.3" font-family="Times,serif" font-size="14.00" fill="#000000">prev_cmd: InputLayer</text>
</g>
<!-- 140696036883872&#45;&gt;140696034155880 -->
<g id="edge11" class="edge">
<title>140696036883872&#45;&gt;140696034155880</title>
<path fill="none" stroke="#000000" d="M574.7268,-1460.4551C566.0224,-1451.5054 555.3642,-1440.547 545.8618,-1430.7769"/>
<polygon fill="#000000" stroke="#000000" points="548.3534,-1428.3187 538.8721,-1423.5904 543.3353,-1433.1992 548.3534,-1428.3187"/>
</g>
<!-- 140696036884432 -->
<g id="node12" class="node">
<title>140696036884432</title>
<polygon fill="none" stroke="#000000" points="681.0421,-1460.5 681.0421,-1496.5 791.5127,-1496.5 791.5127,-1460.5 681.0421,-1460.5"/>
<text text-anchor="middle" x="736.2774" y="-1474.3" font-family="Times,serif" font-size="14.00" fill="#000000">time: InputLayer</text>
</g>
<!-- 140696036884432&#45;&gt;140696034155880 -->
<g id="edge12" class="edge">
<title>140696036884432&#45;&gt;140696034155880</title>
<path fill="none" stroke="#000000" d="M683.1313,-1460.4551C653.155,-1450.277 615.5267,-1437.5009 584.0969,-1426.8294"/>
<polygon fill="#000000" stroke="#000000" points="585.1516,-1423.4913 574.5572,-1423.5904 582.901,-1430.1197 585.1516,-1423.4913"/>
</g>
<!-- 140696034035808 -->
<g id="node14" class="node">
<title>140696034035808</title>
<polygon fill="none" stroke="#000000" points="360.6809,-1314.5 360.6809,-1350.5 681.8739,-1350.5 681.8739,-1314.5 360.6809,-1314.5"/>
<text text-anchor="middle" x="521.2774" y="-1328.3" font-family="Times,serif" font-size="14.00" fill="#000000">time_distributed_9(dense_1): TimeDistributed(Dense)</text>
</g>
<!-- 140696034155880&#45;&gt;140696034035808 -->
<g id="edge13" class="edge">
<title>140696034155880&#45;&gt;140696034035808</title>
<path fill="none" stroke="#000000" d="M521.2774,-1387.4551C521.2774,-1379.3828 521.2774,-1369.6764 521.2774,-1360.6817"/>
<polygon fill="#000000" stroke="#000000" points="524.7775,-1360.5903 521.2774,-1350.5904 517.7775,-1360.5904 524.7775,-1360.5903"/>
</g>
<!-- 140696034036648 -->
<g id="node15" class="node">
<title>140696034036648</title>
<polygon fill="none" stroke="#000000" points="345.5035,-1241.5 345.5035,-1277.5 697.0513,-1277.5 697.0513,-1241.5 345.5035,-1241.5"/>
<text text-anchor="middle" x="521.2774" y="-1255.3" font-family="Times,serif" font-size="14.00" fill="#000000">time_distributed_10(dropout_1): TimeDistributed(Dropout)</text>
</g>
<!-- 140696034035808&#45;&gt;140696034036648 -->
<g id="edge14" class="edge">
<title>140696034035808&#45;&gt;140696034036648</title>
<path fill="none" stroke="#000000" d="M521.2774,-1314.4551C521.2774,-1306.3828 521.2774,-1296.6764 521.2774,-1287.6817"/>
<polygon fill="#000000" stroke="#000000" points="524.7775,-1287.5903 521.2774,-1277.5904 517.7775,-1287.5904 524.7775,-1287.5903"/>
</g>
<!-- 140696033212960 -->
<g id="node16" class="node">
<title>140696033212960</title>
<polygon fill="none" stroke="#000000" points="357.1809,-1168.5 357.1809,-1204.5 685.3739,-1204.5 685.3739,-1168.5 357.1809,-1168.5"/>
<text text-anchor="middle" x="521.2774" y="-1182.3" font-family="Times,serif" font-size="14.00" fill="#000000">time_distributed_11(dense_2): TimeDistributed(Dense)</text>
</g>
<!-- 140696034036648&#45;&gt;140696033212960 -->
<g id="edge15" class="edge">
<title>140696034036648&#45;&gt;140696033212960</title>
<path fill="none" stroke="#000000" d="M521.2774,-1241.4551C521.2774,-1233.3828 521.2774,-1223.6764 521.2774,-1214.6817"/>
<polygon fill="#000000" stroke="#000000" points="524.7775,-1214.5903 521.2774,-1204.5904 517.7775,-1214.5904 524.7775,-1214.5903"/>
</g>
<!-- 140696033212624 -->
<g id="node17" class="node">
<title>140696033212624</title>
<polygon fill="none" stroke="#000000" points="345.5035,-1095.5 345.5035,-1131.5 697.0513,-1131.5 697.0513,-1095.5 345.5035,-1095.5"/>
<text text-anchor="middle" x="521.2774" y="-1109.3" font-family="Times,serif" font-size="14.00" fill="#000000">time_distributed_12(dropout_2): TimeDistributed(Dropout)</text>
</g>
<!-- 140696033212960&#45;&gt;140696033212624 -->
<g id="edge16" class="edge">
<title>140696033212960&#45;&gt;140696033212624</title>
<path fill="none" stroke="#000000" d="M521.2774,-1168.4551C521.2774,-1160.3828 521.2774,-1150.6764 521.2774,-1141.6817"/>
<polygon fill="#000000" stroke="#000000" points="524.7775,-1141.5903 521.2774,-1131.5904 517.7775,-1141.5904 524.7775,-1141.5903"/>
</g>
<!-- 140696032030560 -->
<g id="node18" class="node">
<title>140696032030560</title>
<polygon fill="none" stroke="#000000" points="357.1809,-1022.5 357.1809,-1058.5 685.3739,-1058.5 685.3739,-1022.5 357.1809,-1022.5"/>
<text text-anchor="middle" x="521.2774" y="-1036.3" font-family="Times,serif" font-size="14.00" fill="#000000">time_distributed_13(dense_3): TimeDistributed(Dense)</text>
</g>
<!-- 140696033212624&#45;&gt;140696032030560 -->
<g id="edge17" class="edge">
<title>140696033212624&#45;&gt;140696032030560</title>
<path fill="none" stroke="#000000" d="M521.2774,-1095.4551C521.2774,-1087.3828 521.2774,-1077.6764 521.2774,-1068.6817"/>
<polygon fill="#000000" stroke="#000000" points="524.7775,-1068.5903 521.2774,-1058.5904 517.7775,-1068.5904 524.7775,-1068.5903"/>
</g>
<!-- 140696032030392 -->
<g id="node19" class="node">
<title>140696032030392</title>
<polygon fill="none" stroke="#000000" points="345.5035,-949.5 345.5035,-985.5 697.0513,-985.5 697.0513,-949.5 345.5035,-949.5"/>
<text text-anchor="middle" x="521.2774" y="-963.3" font-family="Times,serif" font-size="14.00" fill="#000000">time_distributed_14(dropout_3): TimeDistributed(Dropout)</text>
</g>
<!-- 140696032030560&#45;&gt;140696032030392 -->
<g id="edge18" class="edge">
<title>140696032030560&#45;&gt;140696032030392</title>
<path fill="none" stroke="#000000" d="M521.2774,-1022.4551C521.2774,-1014.3828 521.2774,-1004.6764 521.2774,-995.6817"/>
<polygon fill="#000000" stroke="#000000" points="524.7775,-995.5903 521.2774,-985.5904 517.7775,-995.5904 524.7775,-995.5903"/>
</g>
<!-- 140696032745960 -->
<g id="node20" class="node">
<title>140696032745960</title>
<polygon fill="none" stroke="#000000" points="478.4769,-876.5 478.4769,-912.5 564.0779,-912.5 564.0779,-876.5 478.4769,-876.5"/>
<text text-anchor="middle" x="521.2774" y="-890.3" font-family="Times,serif" font-size="14.00" fill="#000000">gru_1: GRU</text>
</g>
<!-- 140696032030392&#45;&gt;140696032745960 -->
<g id="edge19" class="edge">
<title>140696032030392&#45;&gt;140696032745960</title>
<path fill="none" stroke="#000000" d="M521.2774,-949.4551C521.2774,-941.3828 521.2774,-931.6764 521.2774,-922.6817"/>
<polygon fill="#000000" stroke="#000000" points="524.7775,-922.5903 521.2774,-912.5904 517.7775,-922.5904 524.7775,-922.5903"/>
</g>
<!-- 140696031002352 -->
<g id="node21" class="node">
<title>140696031002352</title>
<polygon fill="none" stroke="#000000" points="345.5035,-803.5 345.5035,-839.5 697.0513,-839.5 697.0513,-803.5 345.5035,-803.5"/>
<text text-anchor="middle" x="521.2774" y="-817.3" font-family="Times,serif" font-size="14.00" fill="#000000">time_distributed_15(dropout_4): TimeDistributed(Dropout)</text>
</g>
<!-- 140696032745960&#45;&gt;140696031002352 -->
<g id="edge20" class="edge">
<title>140696032745960&#45;&gt;140696031002352</title>
<path fill="none" stroke="#000000" d="M521.2774,-876.4551C521.2774,-868.3828 521.2774,-858.6764 521.2774,-849.6817"/>
<polygon fill="#000000" stroke="#000000" points="524.7775,-849.5903 521.2774,-839.5904 517.7775,-849.5904 524.7775,-849.5903"/>
</g>
<!-- 140696031002408 -->
<g id="node22" class="node">
<title>140696031002408</title>
<polygon fill="none" stroke="#000000" points="478.4769,-730.5 478.4769,-766.5 564.0779,-766.5 564.0779,-730.5 478.4769,-730.5"/>
<text text-anchor="middle" x="521.2774" y="-744.3" font-family="Times,serif" font-size="14.00" fill="#000000">gru_2: GRU</text>
</g>
<!-- 140696031002352&#45;&gt;140696031002408 -->
<g id="edge21" class="edge">
<title>140696031002352&#45;&gt;140696031002408</title>
<path fill="none" stroke="#000000" d="M521.2774,-803.4551C521.2774,-795.3828 521.2774,-785.6764 521.2774,-776.6817"/>
<polygon fill="#000000" stroke="#000000" points="524.7775,-776.5903 521.2774,-766.5904 517.7775,-776.5904 524.7775,-776.5903"/>
</g>
<!-- 140696029884088 -->
<g id="node23" class="node">
<title>140696029884088</title>
<polygon fill="none" stroke="#000000" points="345.5035,-657.5 345.5035,-693.5 697.0513,-693.5 697.0513,-657.5 345.5035,-657.5"/>
<text text-anchor="middle" x="521.2774" y="-671.3" font-family="Times,serif" font-size="14.00" fill="#000000">time_distributed_16(dropout_5): TimeDistributed(Dropout)</text>
</g>
<!-- 140696031002408&#45;&gt;140696029884088 -->
<g id="edge22" class="edge">
<title>140696031002408&#45;&gt;140696029884088</title>
<path fill="none" stroke="#000000" d="M521.2774,-730.4551C521.2774,-722.3828 521.2774,-712.6764 521.2774,-703.6817"/>
<polygon fill="#000000" stroke="#000000" points="524.7775,-703.5903 521.2774,-693.5904 517.7775,-703.5904 524.7775,-703.5903"/>
</g>
<!-- 140696029883136 -->
<g id="node24" class="node">
<title>140696029883136</title>
<polygon fill="none" stroke="#000000" points="478.4769,-584.5 478.4769,-620.5 564.0779,-620.5 564.0779,-584.5 478.4769,-584.5"/>
<text text-anchor="middle" x="521.2774" y="-598.3" font-family="Times,serif" font-size="14.00" fill="#000000">gru_3: GRU</text>
</g>
<!-- 140696029884088&#45;&gt;140696029883136 -->
<g id="edge23" class="edge">
<title>140696029884088&#45;&gt;140696029883136</title>
<path fill="none" stroke="#000000" d="M521.2774,-657.4551C521.2774,-649.3828 521.2774,-639.6764 521.2774,-630.6817"/>
<polygon fill="#000000" stroke="#000000" points="524.7775,-630.5903 521.2774,-620.5904 517.7775,-630.5904 524.7775,-630.5903"/>
</g>
<!-- 140696028327272 -->
<g id="node25" class="node">
<title>140696028327272</title>
<polygon fill="none" stroke="#000000" points="345.5035,-511.5 345.5035,-547.5 697.0513,-547.5 697.0513,-511.5 345.5035,-511.5"/>
<text text-anchor="middle" x="521.2774" y="-525.3" font-family="Times,serif" font-size="14.00" fill="#000000">time_distributed_17(dropout_6): TimeDistributed(Dropout)</text>
</g>
<!-- 140696029883136&#45;&gt;140696028327272 -->
<g id="edge24" class="edge">
<title>140696029883136&#45;&gt;140696028327272</title>
<path fill="none" stroke="#000000" d="M521.2774,-584.4551C521.2774,-576.3828 521.2774,-566.6764 521.2774,-557.6817"/>
<polygon fill="#000000" stroke="#000000" points="524.7775,-557.5903 521.2774,-547.5904 517.7775,-557.5904 524.7775,-557.5903"/>
</g>
<!-- 140696028325984 -->
<g id="node26" class="node">
<title>140696028325984</title>
<polygon fill="none" stroke="#000000" points="478.4769,-438.5 478.4769,-474.5 564.0779,-474.5 564.0779,-438.5 478.4769,-438.5"/>
<text text-anchor="middle" x="521.2774" y="-452.3" font-family="Times,serif" font-size="14.00" fill="#000000">gru_4: GRU</text>
</g>
<!-- 140696028327272&#45;&gt;140696028325984 -->
<g id="edge25" class="edge">
<title>140696028327272&#45;&gt;140696028325984</title>
<path fill="none" stroke="#000000" d="M521.2774,-511.4551C521.2774,-503.3828 521.2774,-493.6764 521.2774,-484.6817"/>
<polygon fill="#000000" stroke="#000000" points="524.7775,-484.5903 521.2774,-474.5904 517.7775,-484.5904 524.7775,-484.5903"/>
</g>
<!-- 140696026441880 -->
<g id="node27" class="node">
<title>140696026441880</title>
<polygon fill="none" stroke="#000000" points="345.5035,-365.5 345.5035,-401.5 697.0513,-401.5 697.0513,-365.5 345.5035,-365.5"/>
<text text-anchor="middle" x="521.2774" y="-379.3" font-family="Times,serif" font-size="14.00" fill="#000000">time_distributed_18(dropout_7): TimeDistributed(Dropout)</text>
</g>
<!-- 140696028325984&#45;&gt;140696026441880 -->
<g id="edge26" class="edge">
<title>140696028325984&#45;&gt;140696026441880</title>
<path fill="none" stroke="#000000" d="M521.2774,-438.4551C521.2774,-430.3828 521.2774,-420.6764 521.2774,-411.6817"/>
<polygon fill="#000000" stroke="#000000" points="524.7775,-411.5903 521.2774,-401.5904 517.7775,-411.5904 524.7775,-411.5903"/>
</g>
<!-- 140696027235664 -->
<g id="node28" class="node">
<title>140696027235664</title>
<polygon fill="none" stroke="#000000" points="478.4769,-292.5 478.4769,-328.5 564.0779,-328.5 564.0779,-292.5 478.4769,-292.5"/>
<text text-anchor="middle" x="521.2774" y="-306.3" font-family="Times,serif" font-size="14.00" fill="#000000">gru_5: GRU</text>
</g>
<!-- 140696026441880&#45;&gt;140696027235664 -->
<g id="edge27" class="edge">
<title>140696026441880&#45;&gt;140696027235664</title>
<path fill="none" stroke="#000000" d="M521.2774,-365.4551C521.2774,-357.3828 521.2774,-347.6764 521.2774,-338.6817"/>
<polygon fill="#000000" stroke="#000000" points="524.7775,-338.5903 521.2774,-328.5904 517.7775,-338.5904 524.7775,-338.5903"/>
</g>
<!-- 140696024861328 -->
<g id="node29" class="node">
<title>140696024861328</title>
<polygon fill="none" stroke="#000000" points="345.5035,-219.5 345.5035,-255.5 697.0513,-255.5 697.0513,-219.5 345.5035,-219.5"/>
<text text-anchor="middle" x="521.2774" y="-233.3" font-family="Times,serif" font-size="14.00" fill="#000000">time_distributed_19(dropout_8): TimeDistributed(Dropout)</text>
</g>
<!-- 140696027235664&#45;&gt;140696024861328 -->
<g id="edge28" class="edge">
<title>140696027235664&#45;&gt;140696024861328</title>
<path fill="none" stroke="#000000" d="M521.2774,-292.4551C521.2774,-284.3828 521.2774,-274.6764 521.2774,-265.6817"/>
<polygon fill="#000000" stroke="#000000" points="524.7775,-265.5903 521.2774,-255.5904 517.7775,-265.5904 524.7775,-265.5903"/>
</g>
<!-- 140696023653288 -->
<g id="node30" class="node">
<title>140696023653288</title>
<polygon fill="none" stroke="#000000" points="357.1809,-146.5 357.1809,-182.5 685.3739,-182.5 685.3739,-146.5 357.1809,-146.5"/>
<text text-anchor="middle" x="521.2774" y="-160.3" font-family="Times,serif" font-size="14.00" fill="#000000">time_distributed_20(dense_4): TimeDistributed(Dense)</text>
</g>
<!-- 140696024861328&#45;&gt;140696023653288 -->
<g id="edge29" class="edge">
<title>140696024861328&#45;&gt;140696023653288</title>
<path fill="none" stroke="#000000" d="M521.2774,-219.4551C521.2774,-211.3828 521.2774,-201.6764 521.2774,-192.6817"/>
<polygon fill="#000000" stroke="#000000" points="524.7775,-192.5903 521.2774,-182.5904 517.7775,-192.5904 524.7775,-192.5903"/>
</g>
<!-- 140696023121592 -->
<g id="node31" class="node">
<title>140696023121592</title>
<polygon fill="none" stroke="#000000" points="345.5035,-73.5 345.5035,-109.5 697.0513,-109.5 697.0513,-73.5 345.5035,-73.5"/>
<text text-anchor="middle" x="521.2774" y="-87.3" font-family="Times,serif" font-size="14.00" fill="#000000">time_distributed_21(dropout_9): TimeDistributed(Dropout)</text>
</g>
<!-- 140696023653288&#45;&gt;140696023121592 -->
<g id="edge30" class="edge">
<title>140696023653288&#45;&gt;140696023121592</title>
<path fill="none" stroke="#000000" d="M521.2774,-146.4551C521.2774,-138.3828 521.2774,-128.6764 521.2774,-119.6817"/>
<polygon fill="#000000" stroke="#000000" points="524.7775,-119.5903 521.2774,-109.5904 517.7775,-119.5904 524.7775,-119.5903"/>
</g>
<!-- 140696022523128 -->
<g id="node32" class="node">
<title>140696022523128</title>
<polygon fill="none" stroke="#000000" points="357.1809,-.5 357.1809,-36.5 685.3739,-36.5 685.3739,-.5 357.1809,-.5"/>
<text text-anchor="middle" x="521.2774" y="-14.3" font-family="Times,serif" font-size="14.00" fill="#000000">time_distributed_22(dense_5): TimeDistributed(Dense)</text>
</g>
<!-- 140696023121592&#45;&gt;140696022523128 -->
<g id="edge31" class="edge">
<title>140696023121592&#45;&gt;140696022523128</title>
<path fill="none" stroke="#000000" d="M521.2774,-73.4551C521.2774,-65.3828 521.2774,-55.6764 521.2774,-46.6817"/>
<polygon fill="#000000" stroke="#000000" points="524.7775,-46.5903 521.2774,-36.5904 517.7775,-46.5904 524.7775,-46.5903"/>
</g>
</g>
</svg>
